<svg xmlns="http://www.w3.org/2000/svg" viewBox="0 0 387.66 380.05"><defs><style>.cls-1{fill:#f36621;}</style></defs><g id="Layer_2" data-name="Layer 2"><g id="Layer_1-2" data-name="Layer 1"><path class="cls-1" d="M387.66,176.66q-166.16,0-332.31.07c-3.3,0-4.71-.93-5.92-4C34.19,134.29,18.76,95.92,3.44,57.5-4.35,38,1.8,17.27,18.87,6.74,31.09-.81,44.24-2.38,57.47,3.88c28,13.25,55.76,26.81,83.6,40.28Q251.94,97.8,362.83,151.37c11.31,5.44,19.86,13,24.83,24.53Z"/><path class="cls-1" d="M387.66,204.67c-5.23,12.44-15,19.77-26.87,25.52Q210.58,302.52,60.65,375.45c-19.73,9.61-41.86,3.42-52.47-11.63C-.74,351.16-2.43,337.52,3.43,323c9.12-22.61,18.11-45.28,27.17-67.93C37,239,43.55,222.89,49.88,206.74c.89-2.26,2-2.89,4.35-2.89q166.71.1,333.43.07Z"/></g></g></svg>