<svg xmlns="http://www.w3.org/2000/svg" viewBox="0 0 179.5 177.16"><defs><style>.cls-1{fill:#f36621;}</style></defs><g id="Layer_2" data-name="Layer 2"><g id="Layer_2-2" data-name="Layer 2"><path class="cls-1" d="M62.68,149.2A62.34,62.34,0,0,1,125,86.86c2,0,3.92.11,5.85.29A55.9,55.9,0,0,1,149.81,92a62.67,62.67,0,0,1,9.92,5.43A58,58,0,0,0,122,92.55a52.17,52.17,0,0,0-39.53,50.61v.42c.18,22.47,23.49,37.3,44,28.11a89.75,89.75,0,1,0-57.13,5.47A62.19,62.19,0,0,1,62.68,149.2ZM100.94,39.14c2,4.2,7.15,6.21,10.6,4.59s6.91-24.32,5.8-25.06S95.88,32.48,95.88,32.48s16-17,22.45-17-1.24,31.07-5.43,32.74-17-2.65-17-9.19,18.25-17,18.25-17S99,35,100.94,39.14Zm-21.55-19c2.68-1,10.94,9.62,10.94,9.62S86.27,29.4,77.88,31C77.88,31,76.71,21.14,79.39,20.15ZM48,53.2c-4.26-4.63-5.67-11.59-4.44-14.55s10.11.25,8.88,4.44-5.18,2.22-5.18,2.22,3,2,5.31.48A4,4,0,0,0,54,41.34a6.26,6.26,0,0,0-1.77-2.69s10.85,1,16-2.71,20.47-4.2,26.64-4.2c0,0-6.91,22.2,18.74,18.75,0,0,14.55,26.88,27.13,33.54,0,0-27.63-7.81-54.83,6a72.5,72.5,0,0,0-9.63,5.88,132.85,132.85,0,0,0,6.75-17.67,44.3,44.3,0,0,1,10.4-17.1.83.83,0,0,0-.3-1.37l-36-13.46a8.19,8.19,0,0,1-9.86,2.27c3.94,7.17,12.14,6.36,19.61,12.31s2.76,35,1.6,41.55c-1.63,1.56-3.24,3.23-4.81,5,0,0,9-31.08,2.1-43.16C61.72,57.17,53,58.62,48,53.2Z"/><path class="cls-1" d="M74.8,41.73A6.1,6.1,0,0,1,76.25,41a9.2,9.2,0,0,0-2.33,4.41c-.09,1.71,1.25,1.75,5.47,1.57a50.77,50.77,0,0,1,10,.6,56.75,56.75,0,0,1-7-4.76c-1.88-1.6-4.11-4.21-7.35-2.13a15.73,15.73,0,0,1-5.66,2.42A8.33,8.33,0,0,0,74.8,41.73Z"/></g></g></svg>