<?xml version="1.0" encoding="utf-8"?>
<!-- Generator: Adobe Illustrator 25.0.1, SVG Export Plug-In . SVG Version: 6.00 Build 0)  -->
<svg version="1.1" id="Layer_1" xmlns="http://www.w3.org/2000/svg" xmlns:xlink="http://www.w3.org/1999/xlink" x="0px" y="0px"
	 viewBox="0 0 512 512" style="enable-background:new 0 0 512 512;" xml:space="preserve">
<style type="text/css">
	.st0{fill:#FFFFFF;}
</style>
<path class="st0" d="M423.5,0h-335C39.6,0,0,39.6,0,88.5v335C0,472.4,39.6,512,88.5,512h175.4V325.6l-62.1-1.2v-70.3h61v-53.9
	c0,0-4-80.2,75-95c32.8-6.1,71.5,2.3,71.5,2.3v63.3c0,0-72.7-10.5-72.7,36.3v46.9h65.6l-8.2,71.5h-57.4V512h86.9
	c48.9,0,88.5-39.6,88.5-88.5v-335C512,39.6,472.4,0,423.5,0z"/>
</svg>
