<?xml version="1.0" encoding="utf-8"?>
<!-- Generator: Adobe Illustrator 25.0.1, SVG Export Plug-In . SVG Version: 6.00 Build 0)  -->
<svg version="1.1" id="Capa_1" xmlns="http://www.w3.org/2000/svg" xmlns:xlink="http://www.w3.org/1999/xlink" x="0px" y="0px"
	 viewBox="0 0 512 512" style="enable-background:new 0 0 512 512;" xml:space="preserve">
<style type="text/css">
	.st0{fill:#FFFFFF;}
</style>
<path class="st0" d="M502.9,220.6H264.6c-4.5,0-8.2,3.7-8.2,8.2v78.8c0,4.5,3.7,8.2,8.2,8.2h0h116.4c12,0,19.4,13.1,13.3,23.4
	c-1.7,2.9-3.5,5.7-5.4,8.4c-0.1,0.1-0.2,0.3-0.3,0.4c-0.9,1.2-1.7,2.5-2.6,3.7c-0.5,0.7-1.1,1.5-1.7,2.2c-0.4,0.6-0.9,1.2-1.3,1.8
	c-0.8,1-1.5,1.9-2.3,2.9c-0.3,0.3-0.5,0.7-0.8,1c-0.9,1-1.8,2.1-2.7,3.1c-0.2,0.2-0.4,0.4-0.6,0.7c-0.9,1-1.8,2-2.8,3
	c-0.2,0.2-0.4,0.4-0.6,0.6c-0.9,0.9-1.8,1.9-2.7,2.8c-0.3,0.3-0.6,0.6-0.8,0.9c0,0-0.1,0.1-0.1,0.1l0,0
	c-20,19.8-45.1,34.3-73.2,41.5c-13.2,3.4-27.1,5.1-41.3,5c-43.8-0.3-83.5-18.1-112.3-46.7l0,0l0,0c-29.8-29.5-48.1-70.5-47.7-115.9
	c0.4-43.5,18.2-83,46.8-111.8l0,0v0c29.3-29.5,69.8-47.9,114.4-47.8c41.1,0,78.6,15.5,107.1,40.9c4.1,3.6,10.6,3.4,14.5-0.5
	l29.9-29.9l0,0l22.2-22.2c4.2-4.2,4.1-11.2-0.3-15.3C383.1,24.9,320.6-1,252.1,0c-69.3,1-131.9,29.8-177.5,75.6c0,0,0,0,0,0
	C28.4,122.1-0.1,186.1,0,256.4c0.1,70.8,28.9,134.9,75.5,181.1l0,0c46.1,45.9,109.6,74.3,179.7,74.5c70.3,0.2,134.2-28.7,180.6-75.2
	l0,0l0,0c3.1-3.1,6.3-6.3,9.5-9.4c41.4-46,66.6-106.9,66.6-173.4v-24.3C512,224.7,507.9,220.6,502.9,220.6z"/>
</svg>
