<svg xmlns="http://www.w3.org/2000/svg" viewBox="0 0 409.03 409.03"><defs><style>.cls-1{fill:#f36621;}</style></defs><g id="Layer_2" data-name="Layer 2"><g id="Layer_1-2" data-name="Layer 1"><path class="cls-1" d="M281.52,188.67c-19,0-38-.09-57.06.07-3.19,0-4.21-.57-4.18-4,.2-19.32.09-38.64.1-58,0-6.46-2.28-11.74-8-15.07-11-6.4-23.69,1.48-23.77,14.81q-.17,29.19,0,58.37c0,3.14-.8,3.91-3.9,3.88-19-.15-38-.07-57.06-.07-3.76,0-7.42.44-10.71,2.5a15.73,15.73,0,0,0-6.9,17.3c1.89,7.14,7.61,11.86,15.08,11.91,19.55.11,39.1.19,58.65-.07,4.11-.05,4.91,1.07,4.86,5-.22,19.05-.14,38.1-.08,57.16,0,10.52,7,17.56,16.74,17.17,8.68-.35,15-7.3,15-16.91.08-19.19.19-38.38-.1-57.56-.06-4.25,1.24-4.92,5-4.81,9.44.27,18.88.09,28.33.09v0c10.11,0,20.22.17,30.32-.05a15.74,15.74,0,0,0,14.45-21.43C295.87,192.3,290,188.68,281.52,188.67Z"/><path class="cls-1" d="M204.52,0C91.57,0,0,91.57,0,204.52S91.57,409,204.52,409,409,317.47,409,204.52,317.47,0,204.52,0Zm0,377.45A172.93,172.93,0,1,1,377.45,204.52,172.93,172.93,0,0,1,204.52,377.45Z"/></g></g></svg>